<svg width="513.7600158691407" height="115.81405834166807" viewBox="0 0 369.6666666666667 83.33189734097185" class="css-1j8o68f">
  <defs id="SvgjsDefs1893">
    <linearGradient id="SvgjsLinearGradient1898">
      <stop id="SvgjsStop1899" stop-color="#8f5e25" offset="0"></stop>
      <stop id="SvgjsStop1900" stop-color="#fbf4a1" offset="0.5"></stop>
      <stop id="SvgjsStop1901" stop-color="#8f5e25" offset="1"></stop>
    </linearGradient>
    <linearGradient id="SvgjsLinearGradient1902">
      <stop id="SvgjsStop1903" stop-color="#8f5e25" offset="0"></stop>
      <stop id="SvgjsStop1904" stop-color="#fbf4a1" offset="0.5"></stop>
      <stop id="SvgjsStop1905" stop-color="#8f5e25" offset="1"></stop>
    </linearGradient>
  </defs>
  <g id="SvgjsG1894" featurekey="symbolFeature-0" transform="matrix(1.4367816091954024,0,0,1.4367816091954024,-4.310344827586207,-4.321839960142114)" fill="url(#SvgjsLinearGradient1898)">
    <g xmlns="http://www.w3.org/2000/svg">
      <path d="M31,20.906v-3.899h2v3.899c2.279-0.465,4-2.484,4-4.899c0-2.757-2.243-5-5-5s-5,2.243-5,5   C27,18.422,28.721,20.442,31,20.906z M31,13.007h2v2h-2V13.007z"></path>
      <path d="M40.651,50.288l-5.193-1.154c-0.571,0.757-1.709,1.874-3.458,1.874s-2.887-1.117-3.458-1.874l-5.193,1.154   C21.966,50.595,21,51.799,21,53.216v7.791h22v-7.791C43,51.799,42.034,50.595,40.651,50.288z"></path>
      <path d="M58.651,50.288l-5.193-1.154c-0.571,0.757-1.709,1.874-3.458,1.874s-2.887-1.117-3.458-1.874l-2.92,0.649   C44.478,50.684,45,51.888,45,53.216v7.791h16v-7.791C61,51.799,60.034,50.595,58.651,50.288z"></path>
      <path d="M14,51.007c-1.749,0-2.887-1.117-3.458-1.874l-5.193,1.154C3.966,50.595,3,51.799,3,53.216v7.791h16v-7.791   c0-1.328,0.522-2.533,1.378-3.434l-2.92-0.649C16.887,49.89,15.749,51.007,14,51.007z"></path>
      <path d="M14,45.007c2.757,0,5-2.243,5-5v-2c0-2.414-1.721-4.434-4-4.899v-3.424l8.78-3.511l1.021,1.021l2.143-1.429   c0.555,0.288,1.134,0.528,1.731,0.718l0.506,2.524H31v4.101c-2.279,0.465-4,2.484-4,4.899v2c0,2.757,2.243,5,5,5s5-2.243,5-5v-2   c0-2.414-1.721-4.434-4-4.899v-4.101h1.819l0.506-2.524c0.598-0.189,1.177-0.43,1.731-0.718l2.143,1.429l1.021-1.021L49,29.684   v3.424c-2.279,0.465-4,2.484-4,4.899v2c0,2.757,2.243,5,5,5s5-2.243,5-5v-2c0-2.414-1.721-4.434-4-4.899v-4.778l-9.241-3.697   l1.427-1.427l-1.429-2.143c0.288-0.555,0.528-1.134,0.718-1.731L45,18.827v-5.639l-2.524-0.506   c-0.189-0.598-0.43-1.177-0.718-1.731l1.429-2.143l-3.987-3.987l-2.143,1.429c-0.555-0.288-1.134-0.528-1.731-0.718l-0.506-2.524   h-5.639l-0.506,2.524c-0.598,0.189-1.177,0.43-1.731,0.718l-2.143-1.429l-3.987,3.987l1.429,2.143   c-0.288,0.555-0.528,1.134-0.718,1.731L19,13.188v5.639l2.524,0.506c0.189,0.598,0.43,1.177,0.718,1.731l-1.429,2.143l1.427,1.427   L13,28.331v4.778c-2.279,0.465-4,2.484-4,4.899v2C9,42.764,11.243,45.007,14,45.007z M32,9.007c3.859,0,7,3.141,7,7s-3.141,7-7,7   s-7-3.141-7-7S28.141,9.007,32,9.007z"></path>
      <path d="M12,46.712v1.02c0.245,0.378,0.935,1.275,2,1.275c1.063,0,1.752-0.893,2-1.276v-1.019c-0.634,0.19-1.305,0.295-2,0.295   S12.634,46.902,12,46.712z"></path>
      <path d="M30,46.712v1.019c0.248,0.383,0.937,1.276,2,1.276s1.752-0.893,2-1.276v-1.019c-0.634,0.19-1.305,0.295-2,0.295   S30.634,46.902,30,46.712z"></path>
      <path d="M48,46.712v1.019c0.248,0.383,0.937,1.276,2,1.276s1.752-0.893,2-1.276v-1.019c-0.634,0.19-1.305,0.295-2,0.295   S48.634,46.902,48,46.712z"></path>
      <rect x="49" y="8.007" width="2" height="2"></rect>
      <rect x="49" y="14.007" width="2" height="2"></rect>
      <rect x="49" y="20.007" width="2" height="2"></rect>
      <rect x="53" y="14.007" width="2" height="2"></rect>
      <rect x="53" y="20.007" width="2" height="2"></rect>
      <rect x="53" y="26.007" width="2" height="2"></rect>
      <rect x="13" y="8.007" width="2" height="2"></rect>
      <rect x="13" y="14.007" width="2" height="2"></rect>
      <rect x="13" y="20.007" width="2" height="2"></rect>
      <rect x="9" y="14.007" width="2" height="2"></rect>
      <rect x="9" y="20.007" width="2" height="2"></rect>
      <rect x="9" y="26.007" width="2" height="2"></rect>
    </g>
  </g>
  <g id="SvgjsG1895" featurekey="nameFeature-0" transform="matrix(1.4894251377707173,0,0,1.4894251377707173,102.22549966698101,2.960978469317155)" fill="url(#SvgjsLinearGradient1902)">
    <path d="M23.92 11.440000000000001 l0 5.28 l-8.56 0 l0 23.28 l-6.28 0 l0 -23.28 l-8.56 0 l0 -5.28 l23.4 0 z M31.68 18.76 c6.0268 0.02668 9.04 1.9866 9.04 5.88 l0 10.96 c0 2.0267 0.24 3.4934 0.72 4.4 l-5.76 0 c-0.21332 -0.64 -0.34664 -1.3067 -0.39996 -2 c-1.68 1.7067 -4 2.56 -6.96 2.56 c-2.16 0 -3.8733 -0.54668 -5.14 -1.64 s-1.9 -2.6133 -1.9 -4.56 c0 -1.8933 0.6 -3.36 1.8 -4.4 c1.2267 -1.0933 3.4534 -1.7866 6.68 -2.08 c2.2933 -0.24 3.7466 -0.54 4.36 -0.9 s0.92 -0.91332 0.92 -1.66 c0 -0.93332 -0.28 -1.6266 -0.84 -2.08 s-1.4933 -0.68 -2.8 -0.68 c-1.2 0 -2.1067 0.24668 -2.72 0.74 s-0.97332 1.2866 -1.08 2.38 l-5.68 0 c0.13332 -2.2667 1.0666 -3.9867 2.8 -5.16 s4.0532 -1.76 6.96 -1.76 z M26.96 34.12 c0 1.76 1.16 2.64 3.48 2.64 c3.04 -0.02668 4.5732 -1.5867 4.6 -4.68 l0 -2.2 c-0.45332 0.45332 -1.6 0.78664 -3.44 0.99996 c-1.6 0.18668 -2.7733 0.51336 -3.52 0.98004 s-1.12 1.22 -1.12 2.26 z M53.6 18.76 c2.7733 0 4.94 0.56004 6.5 1.68 s2.4333 2.76 2.62 4.92 l-5.4 0 c-0.08 -0.98668 -0.44 -1.7 -1.08 -2.14 s-1.5733 -0.66 -2.8 -0.66 c-1.0667 0 -1.86 0.16 -2.38 0.48 s-0.78 0.8 -0.78 1.44 c0 0.48 0.17332 0.88 0.52 1.2 s0.87336 0.6 1.58 0.84 s1.4867 0.44 2.34 0.6 c2.5867 0.50668 4.4132 1.0267 5.48 1.56 s1.8467 1.1733 2.34 1.92 s0.74 1.6667 0.74 2.76 c0 2.32 -0.84668 4.1 -2.54 5.34 s-3.9933 1.86 -6.9 1.86 c-3.04 0 -5.4068 -0.65332 -7.1 -1.96 s-2.5666 -3.08 -2.62 -5.32 l5.4 0 c0 1.0667 0.41332 1.9134 1.24 2.54 s1.8667 0.94 3.12 0.94 c1.0667 0 1.9534 -0.23332 2.66 -0.7 s1.06 -1.1134 1.06 -1.94 c0 -0.53332 -0.22 -0.97332 -0.66 -1.32 s-1.06 -0.65336 -1.86 -0.92004 s-2.04 -0.57336 -3.72 -0.92004 c-1.3333 -0.26668 -2.52 -0.62668 -3.56 -1.08 s-1.8333 -1.0466 -2.38 -1.78 s-0.82 -1.6333 -0.82 -2.7 c0 -1.36 0.32668 -2.5467 0.98 -3.56 s1.6533 -1.78 3 -2.3 s3.02 -0.78 5.02 -0.78 z M72.8 11.440000000000001 l0 15.32 l7.16 -7.44 l6.72 0 l-7.8 7.6 l8.68 13.08 l-6.88 0 l-5.68 -9.24 l-2.2 2.12 l0 7.12 l-5.68 0 l0 -28.56 l5.68 0 z M111.52000000000001 11.440000000000001 l0 5.28 l-15.08 0 l0 6.12 l13.84 0 l0 4.88 l-13.84 0 l0 7 l15.4 0 l0 5.28 l-21.68 0 l0 -28.56 l21.36 0 z M125 18.76 c6.0268 0.02668 9.04 1.9866 9.04 5.88 l0 10.96 c0 2.0267 0.24 3.4934 0.72 4.4 l-5.76 0 c-0.21332 -0.64 -0.34664 -1.3067 -0.39996 -2 c-1.68 1.7067 -4 2.56 -6.96 2.56 c-2.16 0 -3.8733 -0.54668 -5.14 -1.64 s-1.9 -2.6133 -1.9 -4.56 c0 -1.8933 0.6 -3.36 1.8 -4.4 c1.2267 -1.0933 3.4534 -1.7866 6.68 -2.08 c2.2933 -0.24 3.7466 -0.54 4.36 -0.9 s0.92 -0.91332 0.92 -1.66 c0 -0.93332 -0.28 -1.6266 -0.84 -2.08 s-1.4933 -0.68 -2.8 -0.68 c-1.2 0 -2.1067 0.24668 -2.72 0.74 s-0.97332 1.2866 -1.08 2.38 l-5.68 0 c0.13332 -2.2667 1.0666 -3.9867 2.8 -5.16 s4.0532 -1.76 6.96 -1.76 z M120.28 34.12 c0 1.76 1.16 2.64 3.48 2.64 c3.04 -0.02668 4.5732 -1.5867 4.6 -4.68 l0 -2.2 c-0.45332 0.45332 -1.6 0.78664 -3.44 0.99996 c-1.6 0.18668 -2.7733 0.51336 -3.52 0.98004 s-1.12 1.22 -1.12 2.26 z M146.92000000000002 18.76 c2.7733 0 4.94 0.56004 6.5 1.68 s2.4333 2.76 2.62 4.92 l-5.4 0 c-0.08 -0.98668 -0.44 -1.7 -1.08 -2.14 s-1.5733 -0.66 -2.8 -0.66 c-1.0667 0 -1.86 0.16 -2.38 0.48 s-0.78 0.8 -0.78 1.44 c0 0.48 0.17332 0.88 0.52 1.2 s0.87336 0.6 1.58 0.84 s1.4867 0.44 2.34 0.6 c2.5867 0.50668 4.4132 1.0267 5.48 1.56 s1.8467 1.1733 2.34 1.92 s0.74 1.6667 0.74 2.76 c0 2.32 -0.84668 4.1 -2.54 5.34 s-3.9933 1.86 -6.9 1.86 c-3.04 0 -5.4068 -0.65332 -7.1 -1.96 s-2.5666 -3.08 -2.62 -5.32 l5.4 0 c0 1.0667 0.41332 1.9134 1.24 2.54 s1.8667 0.94 3.12 0.94 c1.0667 0 1.9534 -0.23332 2.66 -0.7 s1.06 -1.1134 1.06 -1.94 c0 -0.53332 -0.22 -0.97332 -0.66 -1.32 s-1.06 -0.65336 -1.86 -0.92004 s-2.04 -0.57336 -3.72 -0.92004 c-1.3333 -0.26668 -2.52 -0.62668 -3.56 -1.08 s-1.8333 -1.0466 -2.38 -1.78 s-0.82 -1.6333 -0.82 -2.7 c0 -1.36 0.32668 -2.5467 0.98 -3.56 s1.6533 -1.78 3 -2.3 s3.02 -0.78 5.02 -0.78 z M169.48 18.76 c1.9467 0 3.6801 0.45328 5.2 1.36 s2.7133 2.22 3.58 3.94 s1.3 3.7 1.3 5.94 c0 0.21332 -0.01332 0.56 -0.04 1.04 l-14.92 0 c0.05332 1.6533 0.48664 2.94 1.3 3.86 s2.06 1.38 3.74 1.38 c1.04 0 1.9933 -0.26 2.86 -0.78 s1.42 -1.1533 1.66 -1.9 l5 0 c-1.4667 4.64 -4.6932 6.96 -9.68 6.96 c-1.8933 -0.02668 -3.6466 -0.44 -5.26 -1.24 s-2.9 -2.0467 -3.86 -3.74 s-1.44 -3.66 -1.44 -5.9 c0 -2.1067 0.48668 -4.0268 1.46 -5.76 s2.2666 -3.0266 3.88 -3.88 s3.3533 -1.28 5.22 -1.28 z M173.83999999999997 27.439999999999998 c-0.26668 -1.5467 -0.76 -2.6667 -1.48 -3.36 s-1.7467 -1.04 -3.08 -1.04 c-1.3867 0 -2.48 0.39332 -3.28 1.18 s-1.2667 1.86 -1.4 3.22 l9.24 0 z"></path>
  </g>
</svg>